<svg width="422" height="103" viewBox="0 0 422 103" fill="none" xmlns="http://www.w3.org/2000/svg">
<path d="M273.229 36.677C271.01 39.0264 268.015 40.2011 264.245 40.2011C260.474 40.2011 257.472 39.0264 255.239 36.677C253.005 34.3275 251.888 31.4198 251.888 27.9537C251.888 24.4731 252.998 21.5581 255.217 19.2087C257.436 16.8593 260.445 15.6846 264.245 15.6846C268.015 15.6846 271.01 16.8593 273.229 19.2087C275.462 21.5581 276.579 24.4731 276.579 27.9537C276.579 31.4198 275.462 34.3275 273.229 36.677ZM257.066 35.0889C258.821 36.9162 261.214 37.8299 264.245 37.8299C267.276 37.8299 269.654 36.9162 271.38 35.0889C273.12 33.2616 273.99 30.8832 273.99 27.9537C273.99 25.0097 273.12 22.624 271.38 20.7967C269.654 18.9694 267.276 18.0557 264.245 18.0557C261.214 18.0557 258.821 18.9694 257.066 20.7967C255.311 22.624 254.434 25.0097 254.434 27.9537C254.434 30.8687 255.311 33.2471 257.066 35.0889Z" fill="white"/>
<path d="M248.427 9.61348C248.137 9.91804 247.724 10.0703 247.187 10.0703C246.65 10.0703 246.237 9.92529 245.947 9.63524C245.671 9.33068 245.534 8.96087 245.534 8.52579C245.534 8.07622 245.671 7.69915 245.947 7.3946C246.237 7.07554 246.65 6.91602 247.187 6.91602C247.724 6.91602 248.137 7.07554 248.427 7.3946C248.731 7.69915 248.884 8.07622 248.884 8.52579C248.884 8.94637 248.731 9.30893 248.427 9.61348ZM245.903 39.5249V16.3572H248.47V39.5249H245.903Z" fill="white"/>
<path d="M238.042 39.8748C240.334 39.8748 241.479 40.9044 241.479 42.9638C241.479 44.24 241.081 45.2624 240.283 46.0311H238.282L238.586 44.9216C238.92 43.8775 238.942 43.1378 238.651 42.7027C238.361 42.2822 237.731 42.0719 236.759 42.0719H218.616L218.138 39.9618L222.227 34.5016C219.196 32.7468 217.681 29.8753 217.681 25.8871C217.681 22.7981 218.66 20.3254 220.618 18.4691C222.59 16.6127 225.403 15.6846 229.058 15.6846C233.452 15.6846 236.599 17.1131 238.499 19.9701L240.936 16.3589H243.611L239.783 22.1454C240.203 23.2766 240.414 24.5239 240.414 25.8871C240.414 28.9761 239.427 31.4488 237.455 33.3051C235.497 35.1614 232.698 36.0896 229.058 36.0896C227.216 36.0896 225.621 35.8576 224.272 35.3935L220.987 39.8748H238.042ZM220.183 25.8871C220.183 28.4685 220.951 30.4554 222.488 31.8476C224.04 33.2254 226.223 33.9142 229.036 33.9142C231.864 33.9142 234.047 33.2254 235.584 31.8476C237.136 30.4554 237.912 28.4685 237.912 25.8871C237.912 23.3346 237.136 21.3696 235.584 19.9918C234.047 18.6141 231.864 17.9252 229.036 17.9252C226.223 17.9252 224.04 18.6141 222.488 19.9918C220.951 21.3696 220.183 23.3346 220.183 25.8871ZM239.065 20.6444L238.934 20.6879V20.7314L239.065 20.6444Z" fill="white"/>
<path d="M208.929 6.02637L205.231 13.3791H202.708L206.406 6.02637H208.929ZM203.6 15.685C207.428 15.685 210.43 16.8742 212.606 19.2527C214.796 21.6311 215.767 24.9739 215.521 29.2811H193.876C194.137 31.9786 195.137 34.1177 196.878 35.6985C198.618 37.2648 201.018 38.0479 204.078 38.0479C207.878 38.0479 210.51 36.6847 211.975 33.9582H214.542C212.671 38.1204 209.082 40.2015 203.774 40.2015C199.887 40.2015 196.834 39.0413 194.615 36.7209C192.396 34.4005 191.287 31.4783 191.287 27.9542C191.287 24.4446 192.367 21.5223 194.528 19.1874C196.689 16.8525 199.713 15.685 203.6 15.685ZM193.832 27.3668H213.084C212.968 24.2488 212.069 21.8849 210.387 20.2751C208.705 18.6508 206.442 17.8387 203.6 17.8387C200.569 17.8387 198.212 18.7016 196.53 20.4274C194.847 22.1387 193.948 24.4518 193.832 27.3668Z" fill="white"/>
<path d="M185.475 39.5269V7.89697H188.042V39.5269H185.475Z" fill="white"/>
<path d="M178.9 36.677C176.681 39.0264 173.687 40.2011 169.916 40.2011C166.145 40.2011 163.143 39.0264 160.91 36.677C158.676 34.3275 157.56 31.4198 157.56 27.9537C157.56 24.4731 158.669 21.5581 160.888 19.2087C163.107 16.8593 166.116 15.6846 169.916 15.6846C173.687 15.6846 176.681 16.8593 178.9 19.2087C181.134 21.5581 182.25 24.4731 182.25 27.9537C182.25 31.4198 181.134 34.3275 178.9 36.677ZM162.737 35.0889C164.492 36.9162 166.885 37.8299 169.916 37.8299C172.947 37.8299 175.325 36.9162 177.051 35.0889C178.791 33.2616 179.662 30.8832 179.662 27.9537C179.662 25.0097 178.791 22.624 177.051 20.7967C175.325 18.9694 172.947 18.0557 169.916 18.0557C166.885 18.0557 164.492 18.9694 162.737 20.7967C160.982 22.624 160.105 25.0097 160.105 27.9537C160.105 30.8687 160.982 33.2471 162.737 35.0889Z" fill="white"/>
<path d="M144.35 40.2011C140.434 40.2011 137.353 39.0264 135.105 36.677C132.857 34.3275 131.762 31.4198 131.82 27.9537C131.878 24.4441 133.002 21.5218 135.192 19.1869C137.382 16.852 140.434 15.6846 144.35 15.6846C147.352 15.6846 149.818 16.4169 151.746 17.8817C153.675 19.332 154.908 21.3478 155.445 23.9292H152.943C151.783 20.0136 148.918 18.0557 144.35 18.0557C141.232 18.0557 138.781 18.9766 136.997 20.8185C135.214 22.6603 134.322 25.0387 134.322 27.9537C134.322 30.8542 135.214 33.2254 136.997 35.0672C138.781 36.909 141.232 37.8299 144.35 37.8299C148.918 37.8299 151.783 35.8721 152.943 31.9564H155.445C154.85 34.5668 153.595 36.5972 151.681 38.0474C149.767 39.4832 147.323 40.2011 144.35 40.2011Z" fill="white"/>
<path d="M402.9 86.2798C397.367 86.2798 392.949 84.6177 389.645 81.2937C386.363 77.9697 384.721 73.8198 384.721 68.8441C384.721 63.8477 386.352 59.6875 389.614 56.3635C392.897 53.0395 397.326 51.3774 402.9 51.3774C408.516 51.3774 412.965 53.0291 416.248 56.3325C419.531 59.6359 421.172 63.8064 421.172 68.8441C421.172 73.8611 419.531 78.0213 416.248 81.3247C412.965 84.6281 408.516 86.2798 402.9 86.2798ZM396.118 75.5644C397.77 77.2987 400.03 78.1658 402.9 78.1658C405.791 78.1658 408.051 77.2987 409.682 75.5644C411.334 73.8301 412.16 71.59 412.16 68.8441C412.16 66.0775 411.334 63.8271 409.682 62.0928C408.051 60.3585 405.791 59.4914 402.9 59.4914C400.03 59.4914 397.77 60.3585 396.118 62.0928C394.466 63.8271 393.64 66.0775 393.64 68.8441C393.64 71.59 394.466 73.8301 396.118 75.5644Z" fill="white"/>
<path d="M383.849 60.1376H374.713V72.6802C374.713 74.3732 375.105 75.5913 375.89 76.3345C376.674 77.0778 377.934 77.4494 379.668 77.4494H383.849V85.6253H377.934C373.536 85.6253 370.367 84.6446 368.426 82.6832C366.486 80.7219 365.515 77.8314 365.515 74.0119V60.1376H361.72V52.3334H365.515V40.9058H374.713V52.3334H383.849V60.1376Z" fill="white"/>
<path d="M356.615 45.6391C355.727 46.5475 354.52 47.0018 352.992 47.0018C351.485 47.0018 350.287 46.5475 349.399 45.6391C348.512 44.7307 348.068 43.6261 348.068 42.3254C348.068 41.0041 348.522 39.8788 349.43 38.9498C350.339 38.0207 351.526 37.5562 352.992 37.5562C354.478 37.5562 355.676 38.0207 356.584 38.9498C357.493 39.8788 357.947 41.0041 357.947 42.3254C357.947 43.6261 357.503 44.7307 356.615 45.6391ZM348.439 85.3107V52.3285H357.575V85.3107H348.439Z" fill="white"/>
<path d="M329.167 86.2798C327.019 86.2798 325.089 86.1249 323.375 85.8152C321.682 85.5262 320.072 85.01 318.544 84.2668C317.037 83.5235 315.84 82.4189 314.952 80.953C314.064 79.4665 313.558 77.6497 313.434 75.5025H321.734C321.982 76.9477 322.715 77.98 323.933 78.5994C325.172 79.1981 327.019 79.4975 329.476 79.4975C332.057 79.4975 333.905 79.2084 335.02 78.6304C336.135 78.0523 336.692 77.1129 336.692 75.8122C336.692 74.7179 336.341 73.9127 335.639 73.3966C334.958 72.8804 333.791 72.5397 332.14 72.3746L324.459 71.6932C317.316 71.0532 313.744 67.8118 313.744 61.9689C313.744 54.9079 319.029 51.3774 329.6 51.3774C331.624 51.3774 333.43 51.522 335.02 51.811C336.61 52.0794 338.148 52.5749 339.634 53.2975C341.141 54.0201 342.329 55.1247 343.196 56.6112C344.063 58.0771 344.558 59.8837 344.682 62.0309H336.444C336.238 60.6682 335.577 59.6772 334.462 59.0578C333.368 58.4178 331.665 58.0978 329.352 58.0978C324.872 58.0978 322.632 59.3056 322.632 61.7212C322.632 62.7741 322.983 63.569 323.685 64.1058C324.408 64.6426 325.616 64.9936 327.309 65.1587L334.927 65.8401C338.602 66.1704 341.307 67.0582 343.041 68.5034C344.775 69.9486 345.663 72.1888 345.704 75.2237C345.704 78.94 344.352 81.717 341.647 83.5545C338.943 85.3713 334.782 86.2798 329.167 86.2798Z" fill="white"/>
<path d="M290.017 48.0843L295.282 37.6167H303.953L298.689 48.0843H290.017ZM293.61 86.2694C288.077 86.2694 283.658 84.6074 280.355 81.2833C277.072 77.9593 275.431 73.8094 275.431 68.8337C275.431 63.8373 277.062 59.6771 280.324 56.3531C283.607 53.0291 288.035 51.367 293.61 51.367C299.225 51.367 303.675 53.0187 306.957 56.3221C310.24 59.6255 311.882 63.796 311.882 68.8337C311.882 73.8507 310.24 78.0109 306.957 81.3143C303.675 84.6177 299.225 86.2694 293.61 86.2694ZM286.827 75.554C288.479 77.2883 290.74 78.1554 293.61 78.1554C296.5 78.1554 298.761 77.2883 300.392 75.554C302.044 73.8197 302.87 71.5796 302.87 68.8337C302.87 66.0671 302.044 63.8167 300.392 62.0824C298.761 60.3481 296.5 59.481 293.61 59.481C290.74 59.481 288.479 60.3481 286.827 62.0824C285.176 63.8167 284.35 66.0671 284.35 68.8337C284.35 71.5796 285.176 73.8197 286.827 75.554Z" fill="white"/>
<path d="M215.99 86.2798C210.457 86.2798 206.039 84.6177 202.735 81.2937C199.453 77.9697 197.811 73.8198 197.811 68.8441C197.811 63.8477 199.442 59.6875 202.704 56.3635C205.987 53.0395 210.416 51.3774 215.99 51.3774C221.606 51.3774 226.055 53.0291 229.338 56.3325C232.621 59.6359 234.262 63.8064 234.262 68.8441C234.262 73.8611 232.621 78.0213 229.338 81.3247C226.055 84.6281 221.606 86.2798 215.99 86.2798ZM209.208 75.5644C210.86 77.2987 213.12 78.1658 215.99 78.1658C218.881 78.1658 221.142 77.2987 222.773 75.5644C224.424 73.8301 225.25 71.59 225.25 68.8441C225.25 66.0775 224.424 63.8271 222.773 62.0928C221.142 60.3585 218.881 59.4914 215.99 59.4914C213.12 59.4914 210.86 60.3585 209.208 62.0928C207.556 63.8271 206.73 66.0775 206.73 68.8441C206.73 71.59 207.556 73.8301 209.208 75.5644Z" fill="white"/>
<path d="M193.382 51.0205C198.533 51.0205 200.708 52.3292 200.708 52.3292C197.162 55.8093 195.564 60.4172 195.564 60.4172C194.222 59.7228 191.758 59.368 189.843 59.3592C187.386 59.3592 185.517 60.0819 184.237 61.5271C182.957 62.9723 182.317 65.0473 182.317 67.7519V85.3115H173.181V52.3292H182.008L182.317 56.8817L181.543 58.8637C182.761 56.4481 184.237 54.6003 185.972 53.3202C187.726 52.0195 190.43 51.0205 193.382 51.0205Z" fill="white"/>
<path d="M254.957 51.4219C265.463 51.4219 273.414 58.0518 273.414 68.8264C273.414 73.8228 271.907 77.983 268.893 81.307C265.899 84.6104 261.966 86.2621 257.093 86.2621C251.932 86.2621 248.112 84.3936 245.635 80.6566V94.438H236.499L236.499 68.8264C236.499 58.9718 243.828 51.4219 254.957 51.4219ZM254.957 78.272C257.868 78.272 260.17 77.3946 261.863 75.6396C263.556 73.8847 264.402 71.6136 264.402 68.8264C264.402 66.0185 263.556 63.7371 261.863 61.9822C260.17 60.2273 257.868 59.3498 254.957 59.3498C252.087 59.3498 249.795 60.2273 248.081 61.9822C246.368 63.7371 245.511 66.0185 245.511 68.8264C245.511 71.6136 246.368 73.8847 248.081 75.6396C249.795 77.3946 252.087 78.272 254.957 78.272Z" fill="white"/>
<path d="M151.753 51.4219C162.259 51.4219 170.21 58.0518 170.21 68.8264C170.21 73.8228 168.703 77.983 165.689 81.307C162.695 84.6104 158.762 86.2621 153.889 86.2621C148.728 86.2621 144.908 84.3936 142.431 80.6566V94.438H133.295L133.295 68.8264C133.295 58.9718 140.623 51.4219 151.753 51.4219ZM151.753 78.272C154.664 78.272 156.966 77.3946 158.659 75.6396C160.352 73.8847 161.198 71.6136 161.198 68.8264C161.198 66.0185 160.352 63.7371 158.659 61.9822C156.966 60.2273 154.664 59.3498 151.753 59.3498C148.883 59.3498 146.591 60.2273 144.877 61.9822C143.164 63.7371 142.307 66.0185 142.307 68.8264C142.307 71.6136 143.164 73.8847 144.877 75.6396C146.591 77.3946 148.883 78.272 151.753 78.272Z" fill="white"/>
<path fill-rule="evenodd" clip-rule="evenodd" d="M88.6743 51.7716L0.175507 0.676754L0.175502 102.866L88.6743 51.7716ZM63.3583 51.7716L12.8335 22.6011L12.8335 80.942L63.3583 51.7716Z" fill="white"/>
<mask id="mask0_4310_444" style="mask-type:alpha" maskUnits="userSpaceOnUse" x="0" y="0" width="89" height="103">
<path fill-rule="evenodd" clip-rule="evenodd" d="M88.6743 51.7716L0.175507 0.676754L0.175502 102.866L88.6743 51.7716ZM63.3583 51.7716L12.8335 22.6011L12.8335 80.942L63.3583 51.7716Z" fill="#14387F"/>
</mask>
<g mask="url(#mask0_4310_444)">
<g filter="url(#filter0_f_4310_444)">
<path d="M33.907 53.6588C33.907 36.7766 47.5928 23.0908 64.475 23.0908" stroke="#DDD9CD" stroke-width="7.26806"/>
</g>
</g>
<path fill-rule="evenodd" clip-rule="evenodd" d="M70.3987 84.6636C88.5626 84.6636 103.287 69.9389 103.287 51.7751C103.287 33.6112 88.5626 18.8865 70.3987 18.8865C52.2349 18.8865 37.5102 33.6112 37.5102 51.7751C37.5102 69.9389 52.2349 84.6636 70.3987 84.6636ZM70.3987 97.3216C95.5534 97.3216 115.945 76.9297 115.945 51.7751C115.945 26.6204 95.5534 6.22852 70.3987 6.22852C45.2441 6.22852 24.8522 26.6204 24.8522 51.7751C24.8522 76.9297 45.2441 97.3216 70.3987 97.3216Z" fill="#FFCC17"/>
<mask id="mask1_4310_444" style="mask-type:alpha" maskUnits="userSpaceOnUse" x="24" y="6" width="92" height="92">
<path fill-rule="evenodd" clip-rule="evenodd" d="M70.3987 84.6675C88.5626 84.6675 103.287 69.9428 103.287 51.779C103.287 33.6151 88.5626 18.8904 70.3987 18.8904C52.2349 18.8904 37.5102 33.6151 37.5102 51.779C37.5102 69.9428 52.2349 84.6675 70.3987 84.6675ZM70.3987 97.3255C95.5534 97.3255 115.945 76.9336 115.945 51.779C115.945 26.6243 95.5534 6.23242 70.3987 6.23242C45.2441 6.23242 24.8522 26.6243 24.8522 51.779C24.8522 76.9336 45.2441 97.3255 70.3987 97.3255Z" fill="url(#paint0_linear_4310_444)"/>
</mask>
<g mask="url(#mask1_4310_444)">
<g filter="url(#filter1_f_4310_444)">
<path d="M54.9989 63.3506L24.8522 80.9125L29.6876 92.7843L57.0364 70.0018L54.9989 63.3506Z" fill="#CC9305"/>
</g>
</g>
<path fill-rule="evenodd" clip-rule="evenodd" d="M13.0707 80.7948L64.3412 51.2363L70.6634 62.2024L19.3929 91.7609L13.0707 80.7948Z" fill="white"/>
<defs>
<filter id="filter0_f_4310_444" x="28.584" y="17.768" width="37.5801" height="37.5798" filterUnits="userSpaceOnUse" color-interpolation-filters="sRGB">
<feFlood flood-opacity="0" result="BackgroundImageFix"/>
<feBlend mode="normal" in="SourceGraphic" in2="BackgroundImageFix" result="shape"/>
<feGaussianBlur stdDeviation="0.844528" result="effect1_foregroundBlur_4310_444"/>
</filter>
<filter id="filter1_f_4310_444" x="22.508" y="61.0064" width="36.8727" height="34.122" filterUnits="userSpaceOnUse" color-interpolation-filters="sRGB">
<feFlood flood-opacity="0" result="BackgroundImageFix"/>
<feBlend mode="normal" in="SourceGraphic" in2="BackgroundImageFix" result="shape"/>
<feGaussianBlur stdDeviation="1.1721" result="effect1_foregroundBlur_4310_444"/>
</filter>
<linearGradient id="paint0_linear_4310_444" x1="92.8392" y1="0.6982" x2="43.7807" y2="82.3472" gradientUnits="userSpaceOnUse">
<stop stop-color="#FFF279"/>
<stop offset="0.679988" stop-color="#FAC02C"/>
</linearGradient>
</defs>
</svg>
